<mxfile host="app.diagrams.net" modified="2024-04-04T16:57:34.417Z" agent="Mozilla/5.0 (Windows NT 10.0; Win64; x64) AppleWebKit/537.36 (KHTML, like Gecko) Chrome/123.0.0.0 Safari/537.36" version="24.2.0" etag="fThO9dg3PSFJjeuPoQxi" type="github">
  <diagram name="Page-1" id="ynE9jUBt3cWVI-KXIp1h">
    <mxGraphModel>
      <root>
        <mxCell id="0" />
        <mxCell id="1" parent="0" />
      </root>
    </mxGraphModel>
  </diagram>
</mxfile>
